<svg width="493" height="402" viewBox="0 0 493 402" fill="none" xmlns="http://www.w3.org/2000/svg">
<path d="M219.664 347.852C217.025 352.985 213.626 357.172 209.184 359.894C203.251 363.569 196.988 366.682 190.476 369.192C184.583 371.438 182.186 369.6 180.867 363.3C180.349 361.088 180.234 358.802 180.528 356.55C182.773 342.892 192.203 334.443 202.925 326.727C202.745 327.818 202.465 328.891 202.089 329.932C198.069 338.644 204.708 350.208 217.378 348.15C218.013 348.039 218.656 347.977 219.664 347.852Z" fill="white"/>
<path d="M235.483 351.646C233.583 365.2 246.322 372.495 258.28 364.702C255.22 370.077 252.104 374.45 247.282 377.138C242.254 379.972 237.053 382.489 231.711 384.675C224.636 387.472 220.208 383.749 221.507 376.232C223.199 366.595 228.388 358.941 235.483 351.646Z" fill="white"/>
<path d="M252.125 386.713C260.664 379.701 267.966 372.979 272.07 363.445C275.627 364.875 277.009 367.107 277.016 370.409C277.016 374.063 277.541 377.746 277.209 381.359C276.519 388.626 268.477 393.669 261.451 391.258C258.536 390.257 255.89 388.537 252.125 386.713Z" fill="white"/>
<path d="M265.155 344.606C264.969 345.317 264.655 345.989 264.23 346.588C260.181 350.733 256.085 354.823 251.94 358.858C251.233 359.658 250.265 360.181 249.208 360.333C248.151 360.485 247.075 360.256 246.171 359.687C243.408 358.187 242.717 356.709 243.905 353.676C246.392 347.328 251.069 342.485 255.449 337.476C257.252 335.404 259.387 336.675 261.197 337.704C263.656 339.113 264.775 341.462 265.155 344.606Z" fill="white"/>
<path d="M242.172 331.335C242.704 330.644 243.236 330.029 243.761 329.373C244.065 329.767 244.693 330.34 244.597 330.513C244.201 331.106 243.737 331.651 243.215 332.136L242.172 331.335Z" fill="white"/>
<path d="M286.042 323.535C286.097 328.06 282.222 334.513 278.871 335.673C278.18 335.915 276.84 335.832 276.522 335.383C276.259 334.979 276.079 334.526 275.993 334.052C275.906 333.578 275.915 333.091 276.018 332.62C276.874 329.697 282.146 325.034 286.042 323.535Z" fill="black"/>
<path d="M440.346 199.605C425.017 224.175 408.174 247.766 389.915 270.244C392.367 276.371 391.987 282.637 390.606 288.896C388.492 298.52 381.093 303.729 371.262 302.761C365.217 302.167 359.649 300.178 353.3 296.703C354.129 298.927 354.53 300.281 355.131 301.539C357.445 306.375 358.827 311.404 358.585 316.806C357.777 334.291 347.628 342.167 333.763 346.195C330.592 347.12 326.917 346.333 323.477 346.333C323.643 365.718 310.061 381.407 287.284 374.733C287.284 377.807 287.401 380.778 287.284 383.714C287.014 389.165 284.52 393.386 280.023 396.529C271.291 402.629 262.296 403.824 252.99 397.911C250.186 396.115 247.498 394.139 244.555 392.108C243.215 392.73 241.847 393.489 240.41 394.028C237.806 395.064 235.236 396.315 232.521 396.93C220.203 399.693 210.331 391.769 210.338 379.141C210.338 376.578 210.683 374.008 210.911 370.851C209.025 372.066 207.588 372.992 206.158 373.925C201.122 377.213 195.796 379.914 189.792 380.833C181.136 382.215 175.14 378.851 171.699 370.747C168.687 363.652 168.245 356.46 170.939 349.172C171.948 346.409 173.074 343.714 174.504 340.06C172.072 341.227 170.414 342.001 168.77 342.823C162.711 345.808 156.411 347.79 149.579 347.859C142.746 347.929 137.758 345.013 134.304 339.217C129.565 331.224 129.309 322.906 132.971 314.464C134.083 311.894 135.541 309.483 137.171 306.375C135.672 306.982 134.608 307.293 133.655 307.812C127.23 311.307 120.356 312.178 113.22 311.266C102.574 309.884 96.1006 301.394 97.9728 290.727C98.7911 286.236 100.184 281.868 102.118 277.732C104.55 272.503 107.727 267.625 110.691 262.396C103.272 252.544 95.4443 242.624 88.1491 232.323C80.9505 222.161 74.2977 211.598 67.0991 200.787C63.9144 204.047 60.6813 207.177 57.6554 210.507C53.6692 214.88 51.5484 215.398 47.1063 211.273C42.2563 206.697 37.6927 201.827 33.4415 196.69C25.1514 186.88 17.2343 176.801 9.06169 166.922C7.01914 164.541 4.80485 162.312 2.43656 160.255C0.516029 158.535 0.198229 156.759 1.55918 154.687C2.32222 153.508 3.19921 152.406 4.17749 151.398C41.1098 113.796 77.1647 75.2818 116.584 40.2216C128.646 29.4929 141.565 19.7245 154.235 9.69347C159.596 5.44481 162.318 5.67269 166.774 10.9783C175.236 21.0577 183.25 31.5171 191.699 41.6033C196.652 47.5169 201.999 53.1127 207.367 58.6532C209.205 60.5461 210.338 62.4736 210.469 65.0642C210.663 68.7119 210.158 69.4648 206.794 71.0883C205.359 71.9119 203.975 72.8208 202.649 73.8102C221.17 90.3903 243.823 97.0362 266.296 105.23C267.581 103.682 268.956 102.149 270.199 100.511C272.645 97.2988 275.18 94.1347 277.391 90.7565C282.379 83.1089 288.603 76.8154 296.61 72.3526C297.363 71.9312 298.04 71.3715 299.297 70.4941C296.534 67.634 294.081 64.7188 291.215 62.3216C288.907 60.3803 288.451 58.4459 289.598 55.876C290.289 54.2664 290.779 52.5323 291.67 51.0401C297.508 41.4236 303.353 31.8487 311.408 23.8004C317.625 17.5828 323.442 11.0129 329.425 4.58807C334.406 -0.759025 336.575 -1.33242 342.42 3.20639C356.54 14.2115 370.744 25.1406 384.25 36.9194C401.431 51.9521 417.728 68.0072 434.757 83.2057C447.883 94.9085 461.589 105.893 474.826 117.43C479.834 121.796 484.283 126.818 488.96 131.571C491.447 134.107 492.339 137.05 491.89 140.697C490.563 151.557 485.396 160.594 478.992 169.105C476.042 173.022 472.94 176.849 470.301 180.973C465.569 188.352 459.047 193.94 452.484 199.502C448.781 202.652 444.678 201.933 440.346 199.605ZM325.135 197.864C326.744 199.246 327.822 200.144 328.838 201.084C339.939 211.315 351.38 221.208 361.998 231.916C368.768 238.741 374.323 246.776 380.436 254.258C381.376 255.411 382.378 256.517 383.442 257.712C401.362 236.724 416.326 214.299 431.02 191.633C430.497 190.978 429.942 190.351 429.355 189.754C418.115 179.923 407.117 169.795 395.552 160.372C382.84 150.104 370.709 139.137 359.214 127.523C350.357 118.501 341.162 109.803 332.009 101.071C324.409 93.8031 316.631 86.7013 308.928 79.5304C308.195 78.8395 307.408 78.2247 306.579 77.5201C300.119 81.9415 293.784 86.0381 289.674 92.7185C279.926 108.49 267.995 122.542 255.394 136.062C250.262 141.589 245.101 147.067 239.733 152.801C242.165 156.255 244.514 159.523 246.745 162.853C247.685 164.234 249.281 165.934 247.547 167.488C245.702 169.139 243.968 167.578 242.483 166.328C241.805 165.767 241.195 165.13 240.666 164.428C239.028 162.21 237.446 159.944 235.65 157.436C234.434 158.556 233.391 159.433 232.438 160.4C224.928 168.055 217.46 175.737 209.944 183.377C204.12 189.305 204.107 189.284 208.051 196.642C209.84 199.978 209.861 200.787 206.932 203.474C203.708 206.45 200.31 209.232 196.756 211.805C189.633 216.89 182.345 221.74 174.919 226.817C175.824 231.018 178.753 233.318 182.573 234.562C187.665 236.22 193.046 236.917 198.172 235.474C205.91 233.297 213.834 231.163 220.97 227.626C237.933 219.366 253.037 207.741 265.363 193.457C267.477 190.997 269.847 189.795 273.163 190.099C289.844 191.659 306.66 189.327 322.288 183.288C326.883 181.526 331.345 179.391 336.029 177.94C340.899 176.542 345.835 175.389 350.82 174.486C351.863 174.272 353.065 174.811 354.855 175.115C349.031 188.262 337.335 192.766 325.135 197.864ZM224.673 303.003C223.664 301.449 222.766 300.033 221.833 298.637C221.143 297.622 220.224 296.71 219.761 295.597C219.422 294.734 219.277 293.228 219.761 292.737C220.185 292.356 220.687 292.071 221.232 291.903C221.778 291.735 222.353 291.687 222.918 291.763C224.254 292.178 225.458 292.932 226.414 293.953C228.56 296.029 230.588 298.225 232.486 300.53C238.45 307.899 244.353 315.307 250.192 322.754C251.862 324.993 254.266 326.573 256.983 327.217C262.012 328.568 266.502 331.434 269.847 335.424C273.191 339.415 275.227 344.337 275.678 349.524C275.788 350.699 275.857 352.232 276.583 352.93C281.646 357.766 286.593 362.892 293.653 364.875C299.726 366.574 304.79 364.764 308.451 359.666C311.587 355.307 313.073 350.644 311.028 345.31C310.098 343.031 309.35 340.681 308.789 338.284C308.154 335.217 306.475 332.958 304.451 330.685C297.708 323.086 290.814 315.487 284.638 307.432C275.795 295.846 267.533 283.826 259.077 271.971C258.056 270.54 257.11 269.058 256.244 267.529C255.236 265.76 254.683 263.791 256.507 262.285C258.331 260.779 260.203 261.802 261.591 263.287C263.664 265.47 265.501 267.798 267.463 270.05C281.405 286.085 292.893 304.143 307.988 319.224C312.327 323.563 316.686 327.894 321.266 331.977C323.767 334.208 326.862 335.756 330.399 335.431C339.076 334.602 346.392 327.141 347.29 318.43C347.76 313.891 346.661 309.698 344.755 305.677C338.689 292.862 330.447 281.553 320.872 271.135C311.829 261.332 302.696 251.591 293.854 241.608C290.855 238.23 290.745 234.589 292.645 233.083C294.544 231.577 298.061 232.268 301.121 235.259C303.884 237.947 306.254 241.021 308.879 243.854C314.24 249.65 318.931 256.448 325.266 260.862C331.021 264.876 335.373 269.884 340.091 274.679C345.287 279.978 350.723 284.889 357.266 288.496C361.548 290.952 366.357 292.347 371.29 292.565C377.328 292.772 379.393 290.755 380.271 284.8C381.397 277.401 378.454 271.259 374.475 265.622C368.298 256.869 361.701 248.42 355.235 239.881C354.514 239.081 353.715 238.355 352.851 237.712C349.812 240.835 347.083 243.764 344.202 246.534C343.021 247.674 341.238 248.448 340.098 246.783C339.49 245.905 339.629 244.095 340.098 242.99C340.828 241.588 341.804 240.329 342.979 239.273C344.789 237.429 346.73 235.709 348.409 234.133C344.603 230.057 341.093 225.899 337.169 222.182C330.537 215.916 323.504 210.065 316.928 203.743C314.599 201.512 312.624 200.98 309.522 201.671C299.239 204.049 288.658 204.881 278.13 204.137C274.6 203.868 272.341 204.828 269.944 207.35C257.341 220.895 242.454 232.119 225.965 240.51C211.174 247.964 195.651 252.883 178.746 247.943C178.647 247.933 178.547 247.945 178.452 247.977C178.358 248.009 178.272 248.061 178.2 248.13C175.962 256.337 173.779 264.323 171.568 272.427C172.22 272.183 172.857 271.899 173.475 271.577C181.506 266.727 190.859 264.528 200.21 265.29C202.448 265.5 204.61 266.208 206.538 267.363C209.84 269.339 211.616 272.655 212.673 276.282C215.561 286.161 215.353 295.701 209.398 304.606C208.072 306.582 206.925 308.675 205.253 311.431L224.673 303.003ZM116.211 256.648C123.361 248.531 131.624 243.183 139.955 237.961C146.712 233.726 153.136 228.607 162.103 229.118C160.722 216.047 167.782 207.101 175.589 198.528C177.35 196.593 179.499 195.011 181.495 193.291C186.283 189.146 191.457 185.408 195.816 180.856C216.383 159.44 236.735 137.81 257.128 116.235C257.846 115.373 258.484 114.448 259.035 113.471C247.823 108.843 237.025 104.221 226.096 99.924C214.946 95.5371 206.248 87.5718 196.936 80.0762C195.257 81.5131 193.778 82.722 192.369 84.0001C163.589 110.072 134.82 136.152 106.063 162.238C98.3873 169.201 90.719 176.186 83.2234 183.35C79.0783 187.322 75.258 191.64 71.3754 195.785C85.9453 216.455 99.6861 237.069 116.204 256.676L116.211 256.648ZM450.439 109.154C449.748 108.373 449.465 107.931 449.058 107.585C434.861 94.9983 420.436 82.6669 406.523 69.7758C385.107 49.9625 364.181 29.6725 341.287 11.5449C339.967 10.5017 338.654 9.43785 337.224 8.29796C333.135 13.1338 329.079 17.5482 325.529 22.3219C318.295 31.9936 311.373 41.9625 304.258 51.7517C302.731 53.8242 300.935 55.7447 299.242 57.7551C302.068 60.7188 304.651 63.5513 307.366 66.2455C310.233 69.0918 313.211 71.8206 316.168 74.5702C336.844 93.8653 357.259 113.444 378.281 132.345C396.174 148.428 414.744 163.744 433.065 179.322C435.672 181.628 438.471 183.708 441.431 185.54C444.346 187.267 447.697 188.206 450.722 185.616C455.241 181.754 459.959 178.017 463.994 173.72C472.594 164.476 480.574 154.749 483.745 142.031C484.919 137.374 484.677 136.207 480.587 133.409C477.258 131.143 474.045 128.718 470.771 126.362C469.866 125.713 468.947 125.071 468.353 124.656C464.09 133.457 459.994 141.996 455.828 150.493C454.873 152.372 453.815 154.197 452.657 155.958C451.386 157.941 449.893 159.799 447.13 158.86C445.058 158.169 444.588 156.02 445.748 152.414C446.284 150.742 446.913 149.103 447.634 147.502C451.883 137.83 456.905 128.621 463.71 120.007L459.158 115.972C454.377 124.262 449.866 132.152 445.237 139.986C444.173 141.775 442.944 143.675 441.306 144.822C440.097 145.685 437.797 146.072 436.54 145.512C435.282 144.953 434.163 142.922 434.004 141.43C433.811 139.62 434.488 137.623 435.13 135.834C437.893 128.415 441.671 121.414 446.356 115.033C447.78 113.126 449.113 111.102 450.432 109.181L450.439 109.154ZM53.8005 203.108C54.3536 202.57 54.8793 202.005 55.3756 201.415C64.5983 189.153 75.5896 178.514 86.346 167.675C94.3804 159.571 102.733 151.785 110.961 143.855C118.297 136.794 125.468 129.526 133.067 122.749C152.984 104.96 173.095 87.3991 193.108 69.7274C195.043 68.021 196.86 66.1834 198.918 64.2007C197.288 62.2456 195.982 60.6083 194.594 59.047C191.671 55.7655 188.203 52.8295 185.861 49.2164C180.017 40.1388 172.735 32.3046 165.641 24.277C164.39 22.8539 163.029 21.5136 161.33 19.7381L140.093 36.8987C141.095 38.2803 141.779 39.2821 142.484 40.2493C146.822 46.2113 151.278 52.0903 155.464 58.1627C156.875 60.3758 157.975 62.7725 158.732 65.2853C159.064 66.2525 158.732 68.2076 158.097 68.5668C157.501 68.8605 156.847 69.0161 156.183 69.022C155.52 69.028 154.863 68.8841 154.262 68.6012C152.04 67.2064 150.043 65.4801 148.342 63.4822C144.556 58.8743 141.054 54.0245 137.461 49.2577C136.01 47.3372 134.622 45.3684 133.109 43.2889C131.527 44.4219 130.346 45.1957 129.275 46.0523C121.675 52.0488 114.014 57.9139 106.601 64.1039C78.5257 87.5924 52.0734 112.698 27.9217 140.241C23.4243 145.374 18.3328 149.996 13.5246 154.866C12.5919 155.813 11.6938 156.801 10.547 158.017C25.4968 172.697 37.1927 189.864 53.7936 203.135L53.8005 203.108ZM149.233 241.671C145.275 242.057 142.608 244.206 140.003 246.506C129.517 255.867 122.125 267.591 114.926 279.432C113.13 282.395 112.031 285.808 110.781 289.104C110.225 290.583 109.886 292.135 109.772 293.711C109.468 297.615 111.037 299.487 114.981 300.192C120.149 301.11 125.261 300.827 129.751 298.002C134.785 294.838 139.642 291.402 144.3 287.708C150.186 283.038 155.789 278.036 161.502 273.104C162.85 271.957 164.335 270.872 164.908 268.841C160.694 270.375 157.046 272.199 153.164 272.986C146.186 274.416 140.777 270.389 139.306 263.446C138.173 258.119 139.175 253.311 142.615 249.111C144.715 246.562 147.015 244.151 149.226 241.698L149.233 241.671ZM172.19 285.048L171.575 284.592C170.29 285.67 168.811 286.596 167.748 287.853C160.563 296.254 153.351 304.634 146.428 313.241C144.611 315.501 143.554 318.45 142.539 321.228C141.282 324.682 141.737 328.136 143.23 331.487C144.66 334.692 146.96 336.322 150.663 336.129C155.879 335.832 160.591 334.112 165.171 331.797C175.989 326.326 185.067 318.672 192.804 309.449C193.91 308.122 195.367 306.81 195.243 304.737C192.086 305.829 189.357 307.176 186.469 307.701C174.242 309.919 166.905 301.649 170.518 289.898C171.029 288.295 171.609 286.693 172.183 285.076L172.19 285.048ZM219.671 347.825C218.663 347.949 218.02 348.011 217.384 348.115C204.714 350.188 198.041 338.609 202.096 329.898C202.472 328.857 202.752 327.784 202.932 326.692C192.21 334.381 182.78 342.858 180.535 356.516C180.241 358.768 180.355 361.054 180.874 363.265C182.172 369.566 184.59 371.403 190.483 369.158C196.995 366.65 203.258 363.539 209.191 359.866C213.626 357.172 217.025 352.985 219.664 347.853L219.671 347.825ZM235.491 351.618C228.396 358.913 223.208 366.567 221.55 376.17C220.251 383.686 224.68 387.41 231.754 384.612C237.096 382.426 242.297 379.909 247.325 377.075C252.161 374.422 255.263 370.049 258.324 364.64C246.324 372.495 233.585 365.2 235.484 351.645L235.491 351.618ZM203.754 284.219C202.566 281.304 201.295 277.926 199.761 274.665C199.402 273.905 198.075 273.007 197.336 273.124C194.794 273.504 191.665 273.567 189.937 275.093C185.908 278.694 182.272 282.712 179.091 287.079C177.544 289.186 177.178 292.261 176.618 294.969C176.121 297.373 177.482 298.907 179.761 299.715C181.236 300.269 182.806 300.521 184.38 300.456C185.954 300.39 187.498 300.009 188.922 299.335C194.545 296.8 198.338 292.164 202.359 287.812C202.994 287.086 203.105 285.919 203.754 284.219ZM226.911 309.49C225.474 310.354 224.148 310.754 223.457 311.639C218.393 317.912 213.246 324.136 208.549 330.671C206.041 334.126 206.787 337.835 209.509 340.17C212.652 342.858 215.726 342.775 219.312 339.48C223.561 335.556 227.554 331.362 231.747 327.362C233.46 325.725 233.82 323.825 233.529 321.614C232.942 316.82 230.538 313.103 226.911 309.456V309.49ZM170.532 250.244C170.394 245.588 169.841 241.954 166.435 239.598C163.444 237.525 161.71 237.726 159.209 240.489C156.708 243.252 154 246.168 151.527 249.118C149.904 250.952 148.467 252.942 147.237 255.059C145.648 257.961 145.102 261.332 147.43 263.943C149.862 266.707 153.199 265.484 155.603 263.784C160.439 260.378 164.991 256.537 169.523 252.731C170.304 252.019 170.407 250.548 170.532 250.209V250.244ZM252.127 386.747C255.857 388.598 258.538 390.291 261.453 391.293C268.479 393.704 276.548 388.66 277.211 381.393C277.543 377.78 277.025 374.098 277.018 370.443C277.018 367.141 275.636 364.916 272.071 363.479C267.968 372.978 260.666 379.7 252.127 386.712V386.747ZM265.156 344.64C264.776 341.497 263.657 339.113 261.198 337.732C259.388 336.702 257.253 335.445 255.45 337.504C251.07 342.512 246.393 347.355 243.906 353.704C242.718 356.737 243.415 358.215 246.172 359.714C247.075 360.283 248.152 360.512 249.208 360.361C250.265 360.209 251.234 359.686 251.94 358.885C256.085 354.846 260.182 350.756 264.23 346.616C264.659 346.008 264.973 345.327 265.156 344.606V344.64ZM202.131 199.488C201.253 197.56 200.493 195.882 199.478 193.657C191.796 201.256 182.352 206.334 178.504 216.849L202.131 199.488ZM242.199 331.369L243.208 332.171C243.73 331.685 244.194 331.14 244.59 330.547C244.686 330.374 244.058 329.801 243.754 329.407C243.236 330.029 242.704 330.678 242.172 331.335L242.199 331.369Z" fill="black"/>
<path d="M325.136 197.864C337.336 192.738 349.032 188.234 354.883 175.156C353.094 174.852 351.892 174.314 350.849 174.528C345.864 175.43 340.927 176.583 336.058 177.982C331.374 179.433 326.911 181.567 322.317 183.329C306.689 189.368 289.873 191.7 273.192 190.141C269.876 189.837 267.506 191.039 265.392 193.498C253.066 207.782 237.961 219.407 220.999 227.667C213.842 231.204 205.918 233.339 198.201 235.515C193.075 236.959 187.693 236.261 182.602 234.603C178.781 233.36 175.852 231.059 174.947 226.859C182.374 221.781 189.662 216.931 196.785 211.847C200.339 209.274 203.737 206.492 206.961 203.515C209.89 200.849 209.869 200.02 208.08 196.683C204.135 189.326 204.149 189.346 209.973 183.419C217.489 175.778 224.957 168.096 232.467 160.442C233.42 159.474 234.463 158.597 235.679 157.478C237.475 159.986 239.057 162.251 240.694 164.469C241.224 165.171 241.834 165.809 242.511 166.369C243.997 167.619 245.731 169.181 247.575 167.53C249.309 165.975 247.713 164.289 246.774 162.894C244.542 159.564 242.194 156.317 239.762 152.842C245.13 147.108 250.29 141.616 255.423 136.103C268.024 122.584 279.955 108.532 289.703 92.76C293.848 86.1003 300.148 82.0036 306.607 77.5615C307.436 78.2524 308.224 78.8948 308.956 79.5718C316.659 86.7427 324.424 93.8445 332.037 101.112C341.191 109.844 350.386 118.542 359.243 127.564C370.738 139.179 382.869 150.145 395.581 160.414C407.145 169.837 418.144 179.965 429.384 189.795C429.97 190.393 430.526 191.02 431.048 191.674C416.354 214.341 401.391 236.765 383.47 257.753C382.406 256.523 381.398 255.418 380.465 254.299C374.351 246.817 368.797 238.783 362.027 231.957C351.402 221.249 339.961 211.356 328.866 201.125C327.823 200.172 326.745 199.294 325.136 197.864Z" fill="white"/>
<path d="M224.673 303.031L205.329 311.432C206.987 308.669 208.134 306.596 209.474 304.607C215.429 295.722 215.637 286.182 212.749 276.282C211.692 272.655 209.916 269.374 206.614 267.363C204.686 266.209 202.524 265.501 200.286 265.291C190.935 264.529 181.582 266.728 173.551 271.577C172.923 271.917 172.275 272.217 171.609 272.476C173.82 264.372 176.003 256.386 178.241 248.179C178.314 248.11 178.4 248.058 178.494 248.026C178.588 247.994 178.688 247.982 178.787 247.992C195.692 252.932 211.215 247.992 226.006 240.559C242.496 232.168 257.382 220.944 269.985 207.398C272.382 204.856 274.641 203.944 278.171 204.186C288.7 204.929 299.28 204.098 309.563 201.72C312.665 201.029 314.641 201.533 316.969 203.792C323.546 210.114 330.579 215.965 337.211 222.231C341.135 225.948 344.644 230.106 348.451 234.182C346.772 235.757 344.831 237.478 343.021 239.322C341.845 240.378 340.869 241.637 340.14 243.039C339.67 244.144 339.532 245.954 340.14 246.832C341.28 248.497 343.062 247.723 344.243 246.583C347.124 243.82 349.853 240.883 352.893 237.761C353.757 238.404 354.555 239.13 355.276 239.93C361.742 248.469 368.34 256.918 374.516 265.671C378.495 271.308 381.424 277.415 380.312 284.849C379.407 290.804 377.341 292.821 371.331 292.614C366.399 292.396 361.59 291.001 357.307 288.545C350.765 284.945 345.328 280.033 340.133 274.728C335.414 269.892 331.062 264.897 325.307 260.911C318.972 256.496 314.254 249.699 308.921 243.902C306.296 241.07 303.919 237.996 301.163 235.308C298.102 232.317 294.613 231.612 292.686 233.132C290.759 234.652 290.897 238.279 293.895 241.657C302.738 251.64 311.857 261.381 320.914 271.184C330.489 281.546 338.73 292.883 344.796 305.726C346.703 309.746 347.801 313.94 347.331 318.479C346.433 327.162 339.117 334.651 330.44 335.48C326.903 335.819 323.808 334.271 321.307 332.026C316.727 327.943 312.368 323.612 308.029 319.273C292.935 304.192 281.446 286.113 267.505 270.099C265.543 267.847 263.671 265.519 261.633 263.336C260.251 261.85 258.462 260.752 256.548 262.334C254.635 263.916 255.277 265.788 256.286 267.578C257.152 269.107 258.097 270.589 259.118 272.02C267.608 283.874 275.871 295.895 284.679 307.48C290.855 315.563 297.75 323.1 304.492 330.734C306.517 333.028 308.195 335.287 308.831 338.333C309.392 340.73 310.14 343.08 311.069 345.359C313.142 350.692 311.629 355.356 308.492 359.715C304.831 364.813 299.767 366.623 293.695 364.924C286.634 362.941 281.688 357.829 276.624 352.979C275.933 352.288 275.829 350.748 275.719 349.573C275.268 344.386 273.232 339.464 269.888 335.473C266.544 331.482 262.053 328.617 257.025 327.266C254.308 326.622 251.903 325.042 250.234 322.803C244.399 315.342 238.496 307.934 232.528 300.579C230.629 298.274 228.602 296.078 226.455 294.002C225.5 292.981 224.295 292.227 222.96 291.812C222.394 291.736 221.819 291.784 221.274 291.952C220.729 292.12 220.227 292.405 219.802 292.786C219.305 293.277 219.45 294.783 219.802 295.646C220.238 296.759 221.184 297.67 221.875 298.686C222.766 300.061 223.664 301.491 224.673 303.031ZM322.516 285.27C316.299 287.481 307.422 296.952 306.454 301.657C306.282 302.527 306.613 304.171 307.145 304.372C308.043 304.717 309.736 304.627 310.282 304.006C313.736 300.082 317.073 296.068 320.133 291.847C321.245 290.292 321.522 288.109 322.516 285.27V285.27ZM286.04 323.536C282.109 325.035 276.873 329.698 276.016 332.586C275.913 333.057 275.904 333.543 275.991 334.018C276.077 334.492 276.257 334.945 276.52 335.349C276.838 335.798 278.165 335.881 278.869 335.639C282.22 334.513 286.095 328.061 286.04 323.536Z" fill="white"/>
<path d="M116.207 256.676C99.6886 237.07 85.9685 216.455 71.3711 195.779C75.2536 191.689 79.0532 187.343 83.219 183.343C90.7146 176.179 98.4174 169.195 106.058 162.231C134.806 136.131 163.575 110.052 192.365 83.9937C193.746 82.7157 195.252 81.5068 196.931 80.0698C206.244 87.5654 214.941 95.5308 226.092 99.9176C237.021 104.215 247.818 108.836 259.031 113.465C258.479 114.441 257.841 115.366 257.124 116.228C236.73 137.803 216.365 159.434 195.812 180.85C191.453 185.388 186.278 189.14 181.491 193.285C179.494 195.005 177.346 196.587 175.584 198.521C167.778 207.094 160.69 216.041 162.099 229.112C153.118 228.6 146.707 233.719 139.951 237.954C131.619 243.212 123.357 248.559 116.207 256.676Z" fill="white"/>
<path d="M450.433 109.181C449.114 111.102 447.781 113.126 446.364 115.088C441.679 121.469 437.901 128.47 435.138 135.889C434.496 137.678 433.819 139.675 434.012 141.485C434.171 142.977 435.297 144.987 436.547 145.568C437.798 146.148 440.105 145.768 441.314 144.877C442.952 143.709 444.181 141.81 445.245 140.041C449.874 132.207 454.385 124.304 459.166 116.027L463.718 120.062C456.913 128.677 451.891 137.892 447.642 147.557C446.921 149.158 446.292 150.798 445.756 152.469C444.616 156.075 445.066 158.21 447.138 158.915C449.901 159.854 451.387 157.996 452.665 156.013C453.822 154.252 454.881 152.428 455.836 150.549C459.981 142.051 464.126 133.513 468.361 124.711C468.955 125.126 469.874 125.768 470.779 126.418C474.053 128.773 477.266 131.198 480.595 133.464C484.685 136.262 484.927 137.43 483.753 142.086C480.561 154.804 472.602 164.531 464.001 173.775C459.967 178.106 455.249 181.809 450.73 185.671C447.705 188.262 444.354 187.322 441.439 185.595C438.479 183.763 435.68 181.683 433.073 179.377C414.751 163.771 396.182 148.455 378.289 132.4C357.267 113.499 336.839 93.9205 316.176 74.6254C313.219 71.862 310.241 69.147 307.374 66.3007C304.659 63.6065 302.076 60.774 299.25 57.8103C300.943 55.8 302.739 53.9071 304.266 51.8069C311.381 42.0177 318.303 32.0834 325.536 22.3771C329.087 17.6034 333.136 13.2165 337.232 8.35303C338.662 9.49291 339.996 10.5568 341.294 11.5999C364.189 29.7276 385.142 50.0176 406.53 69.8308C420.444 82.7219 434.855 95.0534 449.065 107.64C449.459 107.958 449.763 108.4 450.433 109.181ZM351.27 40.5047C350.579 37.9901 350.199 35.3511 349.198 32.9885C347.222 28.422 341.978 26.1698 336.873 27.3304C331.768 28.491 329.032 32.2837 329.039 37.693C329.039 43.9934 333.067 47.0401 338.179 49.1955C345.184 52.1523 351.008 48.2007 351.27 40.5047V40.5047Z" fill="#88C9FF"/>
<path d="M53.7915 203.135C37.2114 189.864 25.4671 172.697 10.5449 158.044C11.6917 156.828 12.6175 155.84 13.5225 154.894C18.3584 150.023 23.4222 145.401 27.9196 140.268C52.0989 112.725 78.5236 87.5919 106.599 64.1309C114.012 57.9134 121.694 52.0759 129.273 46.0794C130.357 45.2158 131.525 44.4421 133.107 43.316C134.62 45.3885 136.008 47.3643 137.459 49.2848C141.051 54.0516 144.554 58.9013 148.34 63.5093C150.041 65.5072 152.038 67.2334 154.26 68.6283C154.861 68.9112 155.518 69.0551 156.181 69.0491C156.845 69.0431 157.499 68.8874 158.094 68.5937C158.744 68.2345 159.062 66.2794 158.73 65.3122C157.973 62.7994 156.873 60.4029 155.462 58.1898C151.276 52.1173 146.82 46.2382 142.482 40.2762C141.791 39.309 141.1 38.3351 140.091 36.9257L161.314 19.7998C163.013 21.5822 164.374 22.9155 165.625 24.3387C172.713 32.3662 180.001 40.2279 185.845 49.2779C188.187 52.9186 191.655 55.827 194.578 59.1085C195.959 60.6698 197.272 62.3072 198.902 64.2623C196.83 66.2174 195.027 68.055 193.092 69.789C173.058 87.4607 152.968 105.022 133.052 122.811C125.452 129.588 118.288 136.856 110.945 143.916C102.717 151.833 94.3645 159.633 86.33 167.736C75.5737 178.575 64.5824 189.214 55.3597 201.477C54.8647 202.055 54.3414 202.608 53.7915 203.135ZM68.4719 162.23C68.0435 159.646 67.8985 156.973 67.0902 154.493C65.2042 148.427 59.4909 144.869 52.3062 144.904C46.4686 144.904 42.3581 147.916 40.562 154.258C39.6721 157.456 39.3585 160.787 39.6362 164.096C40.327 172.013 47.3529 176.786 56.5134 176.013C64.5686 175.336 68.534 170.693 68.4719 162.23ZM128.167 51.1225C124.962 51.012 123.331 52.8358 123.974 55.2123C124.449 56.7113 125.227 58.0963 126.261 59.2812C132.119 66.2518 138.005 73.2155 144.057 80.0064C145.376 81.4917 147.663 83.2327 149.452 81.2292C150.281 80.2966 149.873 77.4366 149.058 76.0066C144.355 67.5708 138.433 59.8749 131.483 53.1674C130.466 52.3523 129.352 51.6656 128.167 51.1225V51.1225Z" fill="#E97578"/>
<path d="M149.225 241.698C147.014 244.165 144.714 246.534 142.62 249.125C139.166 253.325 138.178 258.106 139.311 263.46C140.783 270.368 146.22 274.43 153.17 273C157.031 272.213 160.679 270.389 164.914 268.855C164.34 270.886 162.841 271.971 161.508 273.118C155.795 278.016 150.192 283.052 144.306 287.722C139.648 291.416 134.791 294.852 129.757 298.016C125.266 300.841 120.154 301.124 114.987 300.205C111.042 299.515 109.46 297.629 109.778 293.725C109.891 292.149 110.231 290.597 110.787 289.117C112.044 285.85 113.142 282.437 114.932 279.446C122.13 267.605 129.522 255.881 140.009 246.52C142.593 244.234 145.266 242.078 149.225 241.698Z" fill="white"/>
<path d="M172.183 285.076C171.63 286.693 171.029 288.295 170.532 289.912C166.919 301.656 174.256 309.946 186.483 307.715C189.371 307.19 192.1 305.843 195.257 304.751C195.381 306.824 193.924 308.136 192.818 309.463C185.053 318.706 175.976 326.34 165.185 331.811C160.605 334.126 155.893 335.846 150.677 336.143C146.974 336.357 144.674 334.706 143.244 331.501C141.758 328.171 141.303 324.675 142.553 321.242C143.568 318.478 144.625 315.515 146.442 313.256C153.351 304.648 160.577 296.268 167.762 287.867C168.832 286.61 170.304 285.684 171.589 284.606L172.183 285.076Z" fill="white"/>
<path d="M203.752 284.22C203.103 285.954 202.992 287.121 202.37 287.812C198.35 292.164 194.557 296.793 188.933 299.335C187.51 300.01 185.965 300.391 184.392 300.456C182.818 300.521 181.247 300.269 179.773 299.715C177.493 298.907 176.132 297.373 176.63 294.969C177.189 292.261 177.555 289.187 179.103 287.08C182.284 282.712 185.92 278.694 189.949 275.094C191.676 273.567 194.785 273.505 197.348 273.125C198.087 273.007 199.42 273.905 199.773 274.665C201.313 277.892 202.564 281.27 203.752 284.22Z" fill="white"/>
<path d="M226.913 309.455C230.54 313.103 232.944 316.819 233.504 321.579C233.766 323.79 233.434 325.724 231.721 327.327C227.576 331.327 223.549 335.52 219.286 339.444C215.714 342.74 212.626 342.823 209.483 340.135C206.761 337.8 206.029 334.125 208.523 330.636C213.22 324.101 218.367 317.876 223.431 311.604C224.156 310.719 225.497 310.319 226.913 309.455Z" fill="white"/>
<path d="M170.534 250.209C170.409 250.548 170.306 252.019 169.525 252.676C164.993 256.503 160.447 260.344 155.605 263.729C153.2 265.428 149.864 266.624 147.432 263.888C145.104 261.277 145.649 257.905 147.238 255.004C148.469 252.886 149.906 250.896 151.529 249.063C154.002 246.113 156.627 243.294 159.211 240.434C161.794 237.574 163.446 237.443 166.437 239.543C169.829 241.947 170.395 245.532 170.534 250.209Z" fill="white"/>
<path d="M202.133 199.453L178.506 216.813C182.354 206.299 191.798 201.242 199.48 193.622C200.495 195.847 201.255 197.525 202.133 199.453Z" fill="white"/>
<path d="M322.514 285.27C321.52 288.109 321.243 290.292 320.11 291.846C317.05 296.067 313.692 300.081 310.259 304.005C309.713 304.627 308.021 304.696 307.122 304.371C306.611 304.171 306.28 302.527 306.432 301.656C307.42 296.952 316.331 287.48 322.514 285.27Z" fill="black"/>
<path d="M351.27 40.5054C351.007 48.2013 345.183 52.153 338.144 49.1893C333.031 47.0339 329.018 43.9872 329.004 37.6867C329.004 32.2843 331.767 28.4847 336.838 27.3241C341.909 26.1635 347.201 28.4158 349.163 32.9822C350.199 35.3518 350.593 37.9907 351.27 40.5054ZM337.453 38.3501C337.398 41.9839 339.035 43.9182 341.398 43.5244C341.9 43.3502 342.352 43.0548 342.714 42.6644C343.075 42.2741 343.335 41.8007 343.47 41.2861C343.788 38.7577 341.978 36.1463 340.092 36.4502C338.911 36.6022 337.964 37.9217 337.411 38.3501H337.453Z" fill="black"/>
<path d="M68.4724 162.231C68.5346 170.694 64.5692 175.357 56.5416 176.014C47.3811 176.787 40.3552 172.014 39.6644 164.097C39.3868 160.788 39.7002 157.457 40.5901 154.259C42.3932 147.917 46.5037 144.933 52.3344 144.905C59.5467 144.87 65.2324 148.428 67.1184 154.494C67.899 156.974 68.0441 159.647 68.4724 162.231ZM60.6038 160.29C60.6936 155.827 58.5312 153.54 54.02 153.313C50.2204 153.126 48.4174 155.295 48.2239 160.297C48.0535 164.903 50.2296 167.224 54.7523 167.261C58.7592 167.288 60.4932 165.216 60.6038 160.29Z" fill="black"/>
<path d="M128.167 51.1224C129.353 51.6741 130.467 52.3702 131.483 53.195C138.432 59.9025 144.354 67.5982 149.058 76.034C149.873 77.464 150.28 80.3242 149.451 81.2568C147.662 83.2602 145.375 81.5193 144.056 80.034C137.997 73.2292 132.118 66.2656 126.26 59.3088C125.226 58.1239 124.448 56.7388 123.973 55.2398C123.303 52.8357 124.961 51.0119 128.167 51.1224Z" fill="black"/>
<path d="M337.411 38.3494C337.957 37.9211 338.903 36.6016 340.023 36.4289C341.909 36.1456 343.719 38.757 343.401 41.2647C343.266 41.7793 343.006 42.2527 342.644 42.6431C342.283 43.0334 341.831 43.3288 341.328 43.5031C339 43.9176 337.363 41.9832 337.411 38.3494Z" fill="white"/>
<path d="M60.6045 160.289C60.4939 165.215 58.7599 167.287 54.753 167.26C50.2257 167.228 48.0496 164.906 48.2246 160.296C48.418 155.295 50.2211 153.125 54.0207 153.312C58.5388 153.54 60.6943 155.827 60.6045 160.289Z" fill="white"/>
</svg>
