<svg width="388" height="489" viewBox="0 0 388 489" fill="none" xmlns="http://www.w3.org/2000/svg">
<path d="M292.038 239.645C297.012 245.006 301.516 249.683 305.806 254.546C312.535 262.146 316.417 270.995 316.39 281.323C316.343 282.013 316.343 282.706 316.39 283.396C318.248 297.005 312.3 307.741 303.464 317.109C290.214 331.167 276.597 344.888 263.181 358.801C224.646 398.759 186.12 438.724 147.604 478.696C136.509 490.199 121.718 492.099 107.867 484.002C97.504 477.943 87.922 470.876 79.6596 462.116C66.7823 448.431 53.6563 434.973 40.8689 421.205C31.5495 411.174 22.6999 400.707 13.4703 390.593C8.6668 385.209 4.82287 379.04 2.10589 372.355C0.938374 369.592 0.2683 366.138 0.765705 363.202C1.60162 358.241 2.70691 352.977 5.20084 348.694C10.845 339.022 16.7931 329.502 24.8 321.413C48.9034 297.068 72.8134 272.536 96.7924 248.073C97.8771 246.961 98.865 245.759 100.171 244.301C96.9306 240.799 93.953 237.393 90.7752 234.16C84.4056 227.569 78.5888 220.64 74.4161 212.343C71.7288 207.003 70.6442 201.649 72.4542 196.074C74.0707 191.113 75.9083 186.098 78.5681 181.621C85.2692 170.236 93.7666 160.205 103.114 150.858C140.764 113.235 178.268 75.4692 215.624 37.5606C223.168 29.9613 230.283 21.906 238.007 14.4864C246.352 6.46576 256.867 2.5626 268.065 0.407178C269.462 0.222393 270.88 0.290282 272.252 0.607549C284.777 2.8735 296.252 7.41916 305.26 16.7731C329.149 41.5651 352.977 66.4214 376.741 91.3423C380.197 94.8692 382.914 99.0496 384.735 103.639C386.556 108.228 387.443 113.135 387.346 118.071C387.294 118.948 387.308 119.828 387.387 120.703C389.232 133.698 383.56 143.984 375.346 153.172C368.9 160.364 362.109 167.252 355.381 174.188C336.037 194.112 316.694 214.015 297.35 233.897C295.678 235.666 294.055 237.476 292.038 239.645ZM126.236 218.719C127.991 217.11 129.331 215.956 130.547 214.74C142.478 202.575 154.305 190.312 166.319 178.229C174.533 169.939 185.068 166.147 196.142 163.653C198.227 163.296 200.363 163.376 202.415 163.887C214.463 166.444 225.558 170.941 234.346 180.012C243.52 189.467 252.72 198.908 261.945 208.336C263.119 209.538 264.418 210.609 265.744 211.79C267.057 210.65 268.024 209.911 268.888 209.027C283.333 194.657 297.903 180.412 312.148 165.836C320.479 157.297 328.472 148.392 336.231 139.321C344.852 129.242 344.258 117.643 335.139 108.088C330.407 103.135 325.633 98.2231 320.88 93.2906C306.614 78.4997 292.397 63.6536 278.048 48.9456C273.426 44.2064 267.685 41.2496 261.005 43.0458C256.757 44.1786 252.818 46.2542 249.482 49.1183C237.171 60.0957 225.04 71.3011 213.282 82.8726C200.011 95.9226 187.403 109.643 174.16 122.727C161.034 135.674 147.521 148.199 134.167 160.896C125.625 169.041 118.664 178.695 113.635 189.373C111.238 194.423 110.057 199.922 113.359 205.02C116.661 210.118 121.027 214.561 126.236 218.719ZM120.454 268.343C119.28 269.236 118.153 270.188 117.075 271.196C112.329 276.135 107.804 281.296 102.879 286.056C89.504 298.981 75.936 311.72 62.4991 324.584C54.3173 332.353 47.6689 341.591 42.9 351.817C38.0641 362.179 40.1366 366.787 45.9811 372.922C49.9811 377.067 54.3334 380.942 58.3748 385.087C73.3246 400.438 88.1984 415.864 103.141 431.215C105.179 433.397 107.4 435.401 109.78 437.204C118.112 443.242 126.229 442.586 133.428 435.498C165.082 404.293 196.867 373.226 228.315 341.813C240.75 329.413 252.494 316.363 264.307 303.354C266.951 300.321 268.976 296.801 270.269 292.992C273.102 284.902 269.482 275.154 262.345 270.691C261.067 271.942 259.672 273.24 258.352 274.601C244.678 288.75 231.009 302.903 217.344 317.06C208.522 326.152 193.462 328.729 182.367 322.787C171.97 317.212 162.18 310.698 153.87 302.166C143.94 291.978 133.987 281.811 124.012 271.665C122.941 270.546 121.759 269.552 120.454 268.343V268.343ZM130.015 258.512C132.087 260.729 133.656 262.553 135.355 264.28C139.901 268.923 144.44 273.572 149.082 278.097C156.612 285.466 164.186 292.796 171.804 300.087C176.702 304.743 182.249 308.342 188.937 310.007C197.227 312.079 204.273 310.801 210.484 304.211C225.42 288.363 240.66 272.805 255.886 257.234C263.858 249.082 272.121 241.206 280.169 233.123C296.901 216.315 313.806 199.666 330.206 182.54C342.593 169.608 354.531 156.226 366.254 142.686C377.55 129.629 376.728 113.228 364.831 100.883C361.667 97.5945 358.614 94.161 355.464 90.8934C333.357 68.2476 311.174 45.7332 289.274 22.9217C284.438 17.8648 278.967 14.4381 272.321 13.0288C269.429 12.393 266.424 12.4951 263.582 13.3258C257.386 15.3333 251.655 18.5608 246.725 22.818C229.947 37.2703 213.915 52.5079 198.629 68.5308C180.108 87.971 160.799 106.665 141.732 125.587C136.744 130.534 131.369 135.072 126.243 139.881C122.664 143.238 119.203 146.72 115.715 150.167C113.718 152.143 111.846 154.25 109.794 156.157C99.1093 166.165 90.7313 178.378 85.2416 191.949C81.8565 200.094 82.3124 208.184 88.4747 215.148C93.0066 220.274 97.7044 225.241 102.416 230.208C104.302 232.198 106.409 233.987 108.675 236.115C112.647 232.129 116.585 228.771 120.592 223.873C117.911 221.628 115.3 219.984 113.4 217.745C110.174 213.837 107.151 209.764 104.343 205.545C102.022 202.146 101.746 198.305 103.086 194.436C104.115 191.459 104.875 188.219 106.54 185.656C111.376 178.146 116.108 170.526 122.429 164.088C137.739 148.592 152.882 132.924 168.225 117.456C191.714 93.7603 215.486 70.2994 238.843 46.4516C245.295 39.8679 253.026 36.3308 261.516 33.8368C263.037 33.3984 264.635 33.2947 266.2 33.5329C275.409 34.9837 283.982 38.1408 290.58 44.9456C308.811 63.7295 326.856 82.7 344.949 101.594C348.714 105.602 351.165 110.664 351.975 116.102C353.902 127.985 351.588 138.81 342.635 147.577C340.5 149.649 338.559 151.943 336.459 154.064C319.386 171.284 302.306 188.495 285.219 205.697C259.57 231.488 233.899 257.25 208.204 282.981C200.363 290.822 189.482 291.665 180.349 285.406C173.498 280.796 167.234 275.367 161.697 269.24C156.087 262.947 150.257 256.854 144.474 250.712C143.389 249.665 142.25 248.676 141.061 247.749L130.015 258.512ZM271.229 260.902C271.92 262.208 272.072 262.76 272.425 263.106C281.343 271.88 282.304 282.864 280.943 294.387C280.68 296.57 279.63 298.739 278.615 300.743C275.043 307.741 269.475 313.178 264.031 318.649C231.115 351.81 198.185 384.97 165.241 418.13C155.707 427.719 146.174 437.322 136.516 446.793C129.49 453.702 118.354 454.793 110.347 449.184C104.903 445.363 99.3969 441.391 94.8097 436.631C76.1571 417.288 57.8705 397.606 39.4389 378.048C39.0797 377.661 38.748 377.274 38.3888 376.866C30.2853 366.974 29.097 359.292 35.4527 348.936C40.0192 341.495 45.1245 334.186 51.0726 327.831C65.7046 312.176 80.8893 297.033 95.9772 281.821C119.977 257.641 144.205 233.655 168.073 209.331C174.671 202.602 182.685 199.238 191.341 196.737C192.532 196.417 193.779 196.358 194.995 196.564C204.183 198.084 212.681 201.283 219.416 207.942C226.415 214.851 233.116 222.063 239.976 229.117C241.268 230.45 242.67 231.68 244.231 233.151C247.686 229.697 250.739 226.616 254.097 223.244C252.597 221.628 251.333 220.212 250.028 218.858C239.112 207.659 228.024 196.626 217.344 185.214C212.645 180.167 206.369 176.869 199.548 175.86C197.134 175.471 194.662 175.682 192.349 176.475C186.349 178.508 180.78 181.643 175.928 185.718C159.01 200.254 142.831 215.628 127.452 231.783C109.062 251.127 89.8771 269.676 70.9273 288.474C65.822 293.537 60.3022 298.187 55.038 303.105C51.5838 306.332 48.2402 309.689 44.8758 313.019C42.7549 315.092 40.7722 317.358 38.5961 319.389C27.8812 329.378 19.9434 341.323 14.2923 354.732C10.7967 363.022 11.2042 371.222 17.4632 378.428C18.61 379.754 19.6532 381.191 20.8691 382.435C29.6497 391.533 38.4095 400.645 47.273 409.654C62.932 425.557 78.6187 441.412 94.333 457.218C98.0976 460.905 102.06 464.385 106.202 467.643C110.949 471.351 116.696 473.557 122.706 473.978C128.481 474.482 133.669 473.121 138.036 468.679C180.018 425.944 222.207 383.409 264.079 340.563C274.995 329.392 285.122 317.441 295.381 305.648C305.467 294.049 305.053 280.577 298.835 270.36C294.455 263.182 287.644 257.482 281.62 250.802L271.229 260.902ZM148.384 240.868C148.618 241.328 148.906 241.76 149.241 242.153C158.222 251.516 167.224 260.858 176.246 270.18C177.595 271.56 179.058 272.824 180.619 273.959C189.165 280.246 197.123 279.679 204.626 272.301C213.63 263.454 222.624 254.593 231.61 245.718C232.819 244.522 233.917 243.223 234.926 242.118C234.791 241.634 234.594 241.169 234.339 240.736C224.922 230.823 215.596 220.813 206.014 211.072C200.633 205.607 192.639 204.44 185.683 207.797C182.692 209.239 179.878 211.022 177.296 213.11C171.997 217.434 166.768 221.87 161.849 226.602C157.193 231.03 152.978 235.935 148.412 240.854L148.384 240.868Z" fill="black"/>
<path d="M42.3623 232.812C45.8649 232.812 49.3743 232.771 52.8769 232.812C55.205 232.847 56.9805 233.821 57.4502 236.301C57.712 237.34 57.5959 238.437 57.1225 239.398C56.6492 240.359 55.8495 241.12 54.8665 241.545C52.9776 242.453 50.9671 243.084 48.8976 243.417C41.098 244.584 33.2847 245.669 25.4506 246.526C22.8405 246.759 20.2101 246.608 17.644 246.076C15.2814 245.634 13.499 244.052 13.3401 241.413C13.1812 238.774 14.929 237.455 17.0292 236.902C21.5816 235.668 26.193 234.663 30.846 233.89C34.6456 233.296 38.5282 233.268 42.3761 232.992L42.3623 232.812Z" fill="black"/>
<path d="M46.5326 199.977C46.4773 203.901 43.9419 205.725 40.847 204.302C39.1256 203.455 37.5752 202.298 36.2736 200.889C30.2875 194.487 25.3431 187.186 21.6208 179.252C20.5798 176.852 20.0324 174.268 20.0112 171.652C19.9145 169.096 21.8903 167.715 24.2668 168.634C26.3393 169.421 28.6467 170.603 29.7935 172.323C35.3203 180.406 40.4462 188.709 45.6344 196.993C46.27 197.987 46.353 199.314 46.5326 199.977Z" fill="black"/>
<path d="M356.314 299.299C355.333 300.68 354.552 302.808 353.129 303.402C351.706 303.997 349.344 303.541 347.824 302.712C346.304 301.883 345.254 300.293 344.466 298.781C340.756 291.61 337.088 284.418 333.661 277.109C331.838 273.22 332.28 270.574 334.166 269.392C336.052 268.211 338.546 269.012 341.281 272.301C346.456 278.518 351.022 285.199 354.214 292.701C355.029 294.636 355.499 296.694 356.314 299.299Z" fill="black"/>
<path d="M359.608 260.757C352.079 260.223 344.692 258.439 337.749 255.479C336.937 255.154 336.157 254.751 335.421 254.277C333.646 253.103 332.727 251.479 333.418 249.345C334.04 247.403 335.636 246.74 337.563 246.712C338.437 246.683 339.312 246.741 340.174 246.885C347.235 248.191 354.302 249.455 361.335 250.906C366.254 251.921 368.437 253.98 368.16 256.84C367.884 259.7 365.286 261.02 360.167 260.792L359.608 260.757Z" fill="black"/>
<path d="M40.642 224.011C38.9559 223.61 37.295 223.109 35.6679 222.512C27.8062 219.009 19.9652 215.472 12.1794 211.825C10.4271 211.03 8.82952 209.93 7.46091 208.578C7.10095 208.113 6.85685 207.569 6.74873 206.991C6.64062 206.414 6.67156 205.818 6.83914 205.255C7.20528 204.391 8.66987 203.576 9.69922 203.514C11.2725 203.504 12.8343 203.783 14.3072 204.336C24.0549 207.486 33.0773 212.191 41.8648 217.379C43.4675 218.326 45.084 219.555 44.0547 221.524C43.4398 222.657 41.7473 223.244 40.642 224.011Z" fill="black"/>
<path d="M358.497 212.136C357.806 213.255 357.115 215.141 355.733 216.398C351.588 220.377 347.236 224.191 342.856 227.928C340.196 230.194 337.329 232.232 334.566 234.319C332.804 235.624 330.725 236.764 328.991 234.643C327.257 232.522 328.639 230.609 330.221 229.117C333.122 226.353 336.1 223.654 339.153 221.02C343.133 217.598 347.176 214.257 351.284 210.996C352.49 210.009 353.887 209.285 355.388 208.868C357.233 208.391 358.338 209.483 358.497 212.136Z" fill="black"/>
<path d="M130.014 258.512L141.067 247.804C142.256 248.731 143.395 249.72 144.48 250.767C150.263 256.909 156.093 263.002 161.703 269.296C167.24 275.422 173.504 280.851 180.355 285.461C189.488 291.72 200.39 290.877 208.21 283.036C233.923 257.314 259.595 231.553 285.225 205.752C302.33 188.564 319.41 171.353 336.464 154.119C338.537 151.998 340.506 149.718 342.641 147.632C351.622 138.865 353.908 128.04 351.981 116.157C351.171 110.719 348.72 105.657 344.955 101.65C326.862 82.7275 308.817 63.7571 290.586 45.0008C283.988 38.196 275.387 35.0388 266.206 33.5881C264.641 33.3499 263.043 33.4535 261.522 33.892C253.032 36.3859 245.301 39.923 238.849 46.5067C215.492 70.3545 191.74 93.8155 168.231 117.511C152.888 132.979 137.744 148.647 122.435 164.143C116.08 170.582 111.382 178.202 106.546 185.711C104.874 188.302 104.114 191.514 103.092 194.491C101.752 198.36 102.028 202.201 104.349 205.6C107.157 209.82 110.18 213.892 113.406 217.8C115.306 220.039 117.917 221.683 120.598 223.928C116.591 228.826 112.653 232.184 108.681 236.17C106.415 234.042 104.308 232.253 102.422 230.263C97.7103 225.296 93.0126 220.329 88.4807 215.203C82.3184 208.239 81.8624 200.15 85.2475 192.005C90.7372 178.433 99.1153 166.22 109.8 156.212C111.872 154.305 113.724 152.198 115.721 150.222C119.175 146.768 122.67 143.314 126.249 139.936C131.375 135.1 136.75 130.589 141.737 125.642C160.805 106.72 180.114 88.0262 198.635 68.5859C213.93 52.5262 229.962 37.2887 246.731 22.8731C251.66 18.6159 257.392 15.3885 263.588 13.381C266.43 12.5503 269.435 12.4482 272.327 13.084C278.973 14.4657 284.43 17.9197 289.28 22.9767C311.18 45.7744 333.39 68.3028 355.469 90.9485C358.654 94.2162 361.687 97.6496 364.837 100.938C376.734 113.283 377.556 129.684 366.26 142.741C354.516 156.281 342.599 169.683 330.212 182.595C313.812 199.721 296.907 216.37 280.175 233.179C272.127 241.261 263.864 249.137 255.892 257.289C240.693 272.854 225.426 288.377 210.49 304.266C204.272 310.857 197.233 312.128 188.943 310.062C182.255 308.397 176.708 304.798 171.81 300.142C164.183 292.874 156.609 285.544 149.088 278.152C144.446 273.607 139.907 268.957 135.361 264.335C133.655 262.553 132.059 260.729 130.014 258.512Z" fill="#D84047"/>
<path d="M271.228 260.902L281.591 250.788C287.615 257.468 294.427 263.168 298.807 270.345C305.024 280.563 305.473 294.034 295.352 305.634C285.093 317.426 274.966 329.378 264.051 340.549C222.179 383.381 179.989 425.929 138.007 468.665C133.641 473.107 128.452 474.468 122.677 473.964C116.667 473.543 110.92 471.337 106.173 467.628C102.031 464.371 98.0689 460.891 94.3043 457.204C78.5485 441.425 62.8619 425.57 47.2443 409.639C38.3808 400.659 29.6209 391.519 20.8403 382.42C19.6245 381.163 18.5813 379.74 17.4345 378.413C11.1755 371.208 10.7679 363.008 14.2635 354.718C19.9077 341.308 27.8524 329.364 38.5673 319.374C40.7435 317.343 42.7123 315.105 44.847 313.005C48.2114 309.675 51.5551 306.317 55.0093 303.091C60.2666 298.172 65.7864 293.523 70.8986 288.459C89.8484 269.661 109.033 251.099 127.423 231.769C142.802 215.614 158.981 200.239 175.899 185.704C180.751 181.629 186.32 178.494 192.321 176.46C194.633 175.668 197.106 175.457 199.519 175.845C206.34 176.855 212.616 180.153 217.315 185.199C227.996 196.612 239.084 207.645 249.999 218.843C251.318 220.225 252.569 221.607 254.068 223.23C250.71 226.601 247.657 229.676 244.203 233.137C242.641 231.665 241.239 230.436 239.947 229.102C233.087 222.049 226.386 214.836 219.388 207.928C212.652 201.268 204.189 198.07 194.967 196.55C193.75 196.344 192.504 196.403 191.312 196.723C182.656 199.223 174.642 202.588 168.045 209.317C144.176 233.641 119.948 257.606 95.9485 281.807C80.8536 297.005 65.669 312.162 51.0439 327.816C45.1027 334.172 39.9904 341.481 35.424 348.922C29.0682 359.284 30.2565 366.959 38.36 376.852C38.6916 377.26 39.0509 377.647 39.4101 378.034C57.8417 397.591 76.1421 417.266 94.7809 436.617C99.3681 441.377 104.874 445.349 110.318 449.169C118.325 454.779 129.461 453.66 136.487 446.779C146.159 437.308 155.678 427.705 165.212 418.116C198.165 384.956 231.095 351.795 264.002 318.635C269.446 313.15 275.014 307.727 278.586 300.729C279.601 298.725 280.658 296.584 280.914 294.373C282.296 282.85 281.315 271.865 272.396 263.092C272.071 262.76 271.919 262.207 271.228 260.902Z" fill="#FCA930"/>
</svg>
